HIERARCHY
ROOT Hips
{
	OFFSET 0.00000 0.00000 0.00000
	CHANNELS 6 Xposition Yposition Zposition Zrotation Yrotation Xrotation 
	JOINT LHipJoint
	{
		OFFSET 0 0 0
		CHANNELS 3 Zrotation Yrotation Xrotation
		JOINT LeftUpLeg
		{
			OFFSET 1.28858 -1.83292 1.03970
			CHANNELS 3 Zrotation Yrotation Xrotation
			JOINT LeftLeg
			{
				OFFSET 2.47846 -6.80952 0.00000
				CHANNELS 3 Zrotation Yrotation Xrotation
				JOINT LeftFoot
				{
					OFFSET 2.75274 -7.56311 0.00000
					CHANNELS 3 Zrotation Yrotation Xrotation
					JOINT LeftToeBase
					{
						OFFSET 0.12848 -0.35301 1.68223
						CHANNELS 3 Zrotation Yrotation Xrotation
						End Site
						{
							OFFSET 0.00000 -0.00000 0.87311
						}
					}
				}
			}
		}
	}
	JOINT RHipJoint
	{
		OFFSET 0 0 0
		CHANNELS 3 Zrotation Yrotation Xrotation
		JOINT RightUpLeg
		{
			OFFSET -1.31183 -1.83292 1.03970
			CHANNELS 3 Zrotation Yrotation Xrotation
			JOINT RightLeg
			{
				OFFSET -2.44740 -6.72417 0.00000
				CHANNELS 3 Zrotation Yrotation Xrotation
				JOINT RightFoot
				{
					OFFSET -2.67343 -7.34519 0.00000
					CHANNELS 3 Zrotation Yrotation Xrotation
					JOINT RightToeBase
					{
						OFFSET -0.16914 -0.46471 1.77626
						CHANNELS 3 Zrotation Yrotation Xrotation
						End Site
						{
							OFFSET -0.00000 -0.00000 0.92777
						}
					}
				}
			}
		}
	}
	JOINT LowerBack
	{
		OFFSET 0 0 0
		CHANNELS 3 Zrotation Yrotation Xrotation
		JOINT Spine
		{
			OFFSET 0.01249 2.14252 0.03842
			CHANNELS 3 Zrotation Yrotation Xrotation
			JOINT Spine1
			{
				OFFSET -0.02957 2.14199 -0.03751
				CHANNELS 3 Zrotation Yrotation Xrotation
				JOINT Neck
				{
					OFFSET 0 0 0
					CHANNELS 3 Zrotation Yrotation Xrotation
					JOINT Neck1
					{
						OFFSET -0.01678 1.65709 -0.05476
						CHANNELS 3 Zrotation Yrotation Xrotation
						JOINT Head
						{
							OFFSET 0.07912 1.58331 -0.11843
							CHANNELS 3 Zrotation Yrotation Xrotation
							End Site
							{
								OFFSET 0.03298 1.73940 -0.04271
							}
						}
					}
				}
				JOINT LeftShoulder
				{
					OFFSET 0 0 0
					CHANNELS 3 Zrotation Yrotation Xrotation
					JOINT LeftArm
					{
						OFFSET 3.39556 1.16496 0.08673
						CHANNELS 3 Zrotation Yrotation Xrotation
						JOINT LeftForeArm
						{
							OFFSET 5.23910 -0.00000 -0.00000
							CHANNELS 3 Zrotation Yrotation Xrotation
							JOINT LeftHand
							{
								OFFSET 3.31467 -0.00000 0.00000
								CHANNELS 3 Zrotation Yrotation Xrotation
								JOINT LeftFingerBase
								{
									OFFSET 0 0 0
									CHANNELS 3 Zrotation Yrotation Xrotation
									JOINT LeftHandIndex1
									{
										OFFSET 0.96590 -0.00000 0.00000
										CHANNELS 3 Zrotation Yrotation Xrotation
										End Site
										{
											OFFSET 0.77873 -0.00000 0.00000
										}
									}
								}
								JOINT LThumb
								{
									OFFSET 0 0 0
									CHANNELS 3 Zrotation Yrotation Xrotation
									End Site
									{
										OFFSET 0.79062 -0.00000 0.79062
									}
								}
							}
						}
					}
				}
				JOINT RightShoulder
				{
					OFFSET 0 0 0
					CHANNELS 3 Zrotation Yrotation Xrotation
					JOINT RightArm
					{
						OFFSET -3.27193 1.31331 0.33940
						CHANNELS 3 Zrotation Yrotation Xrotation
						JOINT RightForeArm
						{
							OFFSET -5.30252 -0.00000 0.00000
							CHANNELS 3 Zrotation Yrotation Xrotation
							JOINT RightHand
							{
								OFFSET -3.67875 -0.00000 0.00000
								CHANNELS 3 Zrotation Yrotation Xrotation
								JOINT RightFingerBase
								{
									OFFSET 0 0 0
									CHANNELS 3 Zrotation Yrotation Xrotation
									JOINT RightHandIndex1
									{
										OFFSET -0.59481 -0.00000 0.00000
										CHANNELS 3 Zrotation Yrotation Xrotation
										End Site
										{
											OFFSET -0.47955 -0.00000 0.00000
										}
									}
								}
								JOINT RThumb
								{
									OFFSET 0 0 0
									CHANNELS 3 Zrotation Yrotation Xrotation
									End Site
									{
										OFFSET -0.48687 -0.00000 0.48687
									}
								}
							}
						}
					}
				}
			}
		}
	}
}
MOTION
Frames: 8
Frame Time: .0083333
11.1168 21.6277 14.0972 6.6689 -4.1259 11.8676 0.0000 0.0000 0.0000 -20.6305 -8.2092 -32.3633 3.5821 11.5825 34.2706 0.0496 -0.6498 -4.0259 0.4019 4.0700 11.2738 0.0000 0.0000 0.0000 3.2845 0.2790 -31.0448 -2.4454 -9.7380 28.1323 -0.0347 -2.0181 -4.8549 -0.9788 -6.2979 17.6514 -3.4331 0.3037 10.5784 -1.1845 -0.0395 1.7588 0.7058 0.0199 -4.0952 -1.1923 -1.9361 -2.1797 3.0410 -2.3578 -11.3210 1.2432 -1.2336 -3.1990 0.0000 0.0000 0.0000 -76.7987 9.8836 27.3464 3.1032 -5.3565 -0.1452 -0.0000 -0.0000 10.5149 -3.0589 -10.3960 0.5525 -7.1250 0.0000 -0.0000 -20.9972 19.8354 13.5582 0.0000 0.0000 0.0000 80.3808 -18.1771 -14.4708 -5.7877 9.9076 -0.5021 0.0000 0.0000 37.7192 -10.8898 -47.3231 8.0505 7.1250 -0.0000 -0.0000 49.1596 -72.7232 -34.5159
11.1509 21.5622 13.9652 6.5222 -4.7249 12.9551 0.0000 0.0000 0.0000 -19.7689 -9.1875 -35.8300 4.2196 12.4471 37.3325 0.0474 -0.7940 -3.9073 0.3086 3.5717 9.8747 0.0000 0.0000 0.0000 2.9564 0.8955 -34.9899 -3.0589 -10.7898 31.5742 -0.0363 -1.1535 -4.2212 -0.7777 -5.6304 15.7157 -3.1629 0.4322 11.6644 -1.1970 0.1221 2.1175 0.5153 0.0952 -4.3268 -1.0524 -1.8302 -1.6100 2.9203 -2.1964 -13.3947 1.2226 -1.1690 -4.0443 -0.0000 0.0000 0.0000 -76.6580 13.8291 26.8711 3.1306 -5.4036 -0.1478 -0.0000 -0.0000 9.1590 -3.1363 -10.3167 0.5622 -7.1250 0.0000 -0.0000 -21.0595 19.9096 13.5666 -0.0000 0.0000 0.0000 80.4685 -21.7986 -19.3012 -5.6362 9.6541 -0.4763 0.0000 0.0000 39.5947 -10.9296 -47.5007 8.1030 7.1250 -0.0000 -0.0000 49.6003 -72.8418 -34.9787
11.1854 21.4786 13.8352 6.4389 -5.3391 14.1399 0.0000 0.0000 0.0000 -18.8410 -10.2347 -39.4300 4.9017 13.2722 40.3962 0.0447 -1.0398 -3.7646 0.2417 3.1635 8.7343 0.0000 0.0000 0.0000 2.4339 1.6054 -39.0834 -3.7576 -11.8306 35.1355 -0.0354 -0.2128 -3.6379 -0.5786 -4.8709 13.5407 -2.9833 0.5448 12.5107 -1.2515 0.2617 2.4142 0.3321 0.1602 -4.4859 -0.9091 -1.7298 -0.9948 2.8114 -2.0465 -15.2251 1.2004 -1.1094 -4.8437 -0.0000 -0.0000 0.0000 -76.5934 17.8624 26.3858 3.1716 -5.4738 -0.1517 -0.0000 -0.0000 8.0209 -3.3217 -10.2572 0.5921 -7.1250 0.0000 -0.0000 -21.1911 19.9649 13.6359 -0.0000 -0.0000 0.0000 80.6517 -25.5066 -23.5215 -5.5451 9.5013 -0.4612 0.0000 0.0000 41.0263 -10.6844 -47.6966 7.9437 7.1250 -0.0000 -0.0000 50.3441 -72.8662 -35.5944
11.2208 21.3764 13.7075 6.3921 -5.9042 15.3926 0.0000 0.0000 0.0000 -17.8173 -11.3572 -43.1168 5.6203 14.0500 43.4382 0.0407 -1.3965 -3.5806 0.2022 2.8955 7.9881 0.0000 0.0000 0.0000 1.7583 2.3092 -43.2558 -4.5302 -12.8344 38.7518 -0.0310 0.7882 -3.1430 -0.3920 -4.0202 11.1336 -2.8394 0.6261 13.1521 -1.3329 0.3625 2.6497 0.1456 0.2063 -4.5926 -0.7634 -1.6453 -0.2916 2.7959 -1.8967 -17.3209 1.0802 -1.0692 -5.1162 -0.0000 -0.0000 0.0000 -76.6179 21.9575 25.9043 3.2046 -5.5304 -0.1548 -0.0000 -0.0000 7.0914 -3.5018 -10.2443 0.6235 -7.1250 0.0000 -0.0000 -21.3126 19.9767 13.7202 -0.0000 -0.0000 0.0000 80.9359 -29.3311 -26.8840 -5.5107 9.4436 -0.4555 0.0000 0.0000 41.7234 -10.2193 -47.8149 7.6085 7.1250 -0.0000 -0.0000 51.0646 -72.7649 -36.0713
11.2557 21.2558 13.5815 6.3653 -6.4105 16.6562 0.0000 0.0000 0.0000 -16.6856 -12.4862 -46.8293 6.3688 14.7765 46.4446 0.0350 -1.8620 -3.3745 0.1761 2.7031 7.4532 0.0000 0.0000 0.0000 0.9618 3.0002 -47.4079 -5.3642 -13.7826 42.3734 -0.0241 1.7884 -2.8428 -0.2361 -3.1274 8.6336 -2.7392 0.6825 13.6750 -1.4196 0.4282 2.8164 -0.0168 0.2363 -4.7041 -0.6043 -1.5838 0.3125 2.6958 -1.8025 -18.7075 1.0393 -1.0391 -5.6556 -0.0000 -0.0000 0.0000 -76.7466 26.1183 25.4339 3.2149 -5.5480 -0.1558 -0.0000 -0.0000 6.3198 -3.6975 -10.2313 0.6576 -7.1250 0.0000 -0.0000 -21.4443 19.9884 13.8124 -0.0000 -0.0000 0.0000 81.3246 -33.3198 -29.1866 -5.5384 9.4901 -0.4601 0.0000 0.0000 41.4176 -9.6483 -47.8299 7.1814 7.1250 -0.0000 -0.0000 51.5902 -72.5670 -36.2968
11.2882 21.1175 13.4567 6.3607 -6.8716 17.8635 0.0000 0.0000 0.0000 -15.4767 -13.5378 -50.4902 7.1406 15.4491 49.4040 0.0278 -2.4341 -3.1903 0.1485 2.4835 6.8438 0.0000 0.0000 0.0000 0.0639 3.6841 -51.4472 -6.2517 -14.6679 45.9838 -0.0182 2.7049 -2.8589 -0.1327 -2.3479 6.4681 -2.7133 0.7275 14.1351 -1.4985 0.4704 2.9418 -0.1257 0.2560 -4.8235 -0.4508 -1.5447 0.8860 2.5982 -1.7415 -19.8629 0.9983 -1.0239 -6.1225 0.0000 -0.0000 0.0000 -77.0003 30.2989 24.9662 3.1911 -5.5073 -0.1535 -0.0000 -0.0000 5.6289 -3.7709 -10.3232 0.6767 -7.1250 0.0000 -0.0000 -21.4801 19.9025 13.8843 0.0000 -0.0000 0.0000 81.8192 -37.4154 -30.6928 -5.5950 9.5849 -0.4695 0.0000 0.0000 40.3032 -9.0303 -47.7802 6.7127 7.1250 -0.0000 -0.0000 51.9801 -72.3171 -36.3594
11.3181 20.9623 13.3332 6.3970 -7.2965 18.9464 0.0000 0.0000 0.0000 -14.2658 -14.4648 -54.0019 7.9284 16.0664 52.3045 0.0187 -3.0996 -3.0603 0.1204 2.2367 6.1602 0.0000 0.0000 0.0000 -0.9232 4.3347 -55.2860 -7.1872 -15.4875 49.5789 -0.0201 3.4463 -3.2861 -0.0771 -1.7915 4.9297 -2.7786 0.7674 14.5725 -1.5697 0.4933 3.0596 -0.1719 0.2675 -4.9381 -0.3297 -1.5249 1.4150 2.5272 -1.7070 -20.8207 0.9696 -1.0200 -6.5227 -0.0000 -0.0000 0.0000 -77.3992 34.4577 24.4882 3.1363 -5.4134 -0.1483 -0.0000 -0.0000 4.9404 -3.6539 -10.5285 0.6685 -7.1250 0.0000 -0.0000 -21.3739 19.7112 13.9045 -0.0000 -0.0000 0.0000 82.4424 -41.5588 -31.6220 -5.6646 9.7016 -0.4811 0.0000 0.0000 38.5144 -8.4713 -47.6493 6.2813 7.1250 -0.0000 -0.0000 52.1089 -72.0439 -36.1875
11.3453 20.7909 13.2117 6.4657 -7.6777 19.8434 0.0000 0.0000 0.0000 -13.1015 -15.2496 -57.2642 8.7257 16.6279 55.1365 0.0079 -3.8275 -3.0139 0.0948 1.9855 5.4656 0.0000 0.0000 0.0000 -1.9453 4.9245 -58.8356 -8.1643 -16.2388 53.1522 -0.0398 3.9035 -4.1878 -0.0509 -1.4555 4.0031 -2.9107 0.8013 15.0194 -1.6290 0.4982 3.2029 -0.1649 0.2706 -5.0304 -0.2522 -1.5177 1.8981 2.4922 -1.6885 -21.6231 0.9584 -1.0224 -6.8678 -0.0000 -0.0000 0.0000 -77.9598 38.5501 23.9832 3.0513 -5.2675 -0.1404 -0.0000 -0.0000 4.2076 -3.3507 -10.8391 0.6308 -7.1250 0.0000 -0.0000 -21.1308 19.4214 13.8706 -0.0000 -0.0000 0.0000 83.2151 -45.6841 -32.3069 -5.7273 9.8065 -0.4917 0.0000 0.0000 36.3570 -7.9690 -47.4579 5.8888 7.1250 -0.0000 -0.0000 52.0429 -71.7577 -35.8459
